<svg xmlns="http://www.w3.org/2000/svg" width="139.102" height="153.473" viewBox="0 0 139.102 153.473">
  <g id="Group_873" data-name="Group 873" transform="translate(-2594.413 -1337.63)">
    <rect id="Rectangle_438" data-name="Rectangle 438" width="70.448" height="8.652" transform="translate(2627.688 1409.274)" fill="#ffbe00" stroke="#000" stroke-width="1"/>
    <g id="Group_840" data-name="Group 840" transform="translate(2601.906 1339.838)">
      <g id="Group_837" data-name="Group 837" transform="translate(109.395 93.672)">
        <path id="Path_10191" data-name="Path 10191" d="M2985.609,1657.169l-4.792,2.628a4.575,4.575,0,0,0-1.833,1.833l-2.628,4.792-2.628-4.792a4.575,4.575,0,0,0-1.833-1.833l-4.792-2.628,4.792-2.606a4.575,4.575,0,0,0,1.833-1.833l2.628-4.792,2.628,4.792a4.575,4.575,0,0,0,1.833,1.833Z" transform="translate(-2967.104 -1647.939)" fill="#ffbe00"/>
      </g>
      <g id="Group_838" data-name="Group 838" transform="translate(98.884 0)">
        <path id="Path_10192" data-name="Path 10192" d="M2946.821,1350.253a6.944,6.944,0,0,0,3.908,3.909l5.477,2.164-5.477,2.186a6.88,6.88,0,0,0-3.908,3.909l-2.164,5.476-2.165-5.476a6.878,6.878,0,0,0-3.909-3.909l-5.5-2.186,5.5-2.164a6.942,6.942,0,0,0,3.909-3.909l2.165-5.476Z" transform="translate(-2933.086 -1344.777)" fill="#ffbe00"/>
      </g>
      <g id="Group_839" data-name="Group 839" transform="translate(0 10.688)">
        <path id="Path_10193" data-name="Path 10193" d="M2631.541,1388.619l-4.792,2.606a4.772,4.772,0,0,0-1.833,1.855l-2.606,4.792-2.628-4.792a4.773,4.773,0,0,0-1.833-1.855l-4.792-2.606,4.792-2.627a4.578,4.578,0,0,0,1.833-1.833l2.628-4.792,2.606,4.792a4.577,4.577,0,0,0,1.833,1.833Z" transform="translate(-2613.058 -1379.367)" fill="#ffbe00"/>
      </g>
    </g>
    <g id="Group_841" data-name="Group 841" transform="translate(2644.613 1404.561)">
      <path id="Path_10194" data-name="Path 10194" d="M2786.827,1558.662h-33.344a2.208,2.208,0,1,1,0-4.416h33.344a2.208,2.208,0,1,1,0,4.416Z" transform="translate(-2751.275 -1554.246)"/>
    </g>
    <g id="Group_842" data-name="Group 842" transform="translate(2628.758 1416.242)">
      <path id="Path_10195" data-name="Path 10195" d="M2767.223,1651.895h-65.054a2.208,2.208,0,0,1-2.208-2.208V1594.26a2.208,2.208,0,1,1,4.416,0v53.218h60.638V1594.26a2.208,2.208,0,1,1,4.416,0v55.426A2.208,2.208,0,0,1,2767.223,1651.895Z" transform="translate(-2699.961 -1592.052)" fill="#300"/>
    </g>
    <g id="Group_843" data-name="Group 843" transform="translate(2625.556 1404.561)">
      <path id="Path_10196" data-name="Path 10196" d="M2763.287,1570.344h-71.48a2.208,2.208,0,0,1-2.208-2.208v-11.682a2.208,2.208,0,0,1,2.208-2.208h19.057a2.208,2.208,0,1,1,0,4.416h-16.849v7.265h67.063v-7.265h-16.871a2.208,2.208,0,0,1,0-4.416h19.079a2.209,2.209,0,0,1,2.208,2.208v11.682A2.208,2.208,0,0,1,2763.287,1570.344Z" transform="translate(-2689.599 -1554.246)" fill="#300"/>
    </g>
    <g id="Group_844" data-name="Group 844" transform="translate(2666.099 1404.892)">
      <path id="Path_10197" data-name="Path 10197" d="M2823.02,1626.511a2.208,2.208,0,0,1-2.208-2.208v-66.776a2.208,2.208,0,1,1,4.416,0V1624.3A2.208,2.208,0,0,1,2823.02,1626.511Z" transform="translate(-2820.812 -1555.318)" fill="#300"/>
    </g>
    <g id="Group_845" data-name="Group 845" transform="translate(2656.471 1404.892)">
      <path id="Path_10198" data-name="Path 10198" d="M2791.86,1626.511a2.208,2.208,0,0,1-2.208-2.208v-66.776a2.208,2.208,0,1,1,4.416,0V1624.3A2.208,2.208,0,0,1,2791.86,1626.511Z" transform="translate(-2789.652 -1555.318)" fill="#300"/>
    </g>
    <g id="Group_846" data-name="Group 846" transform="translate(2661.285 1374.981)">
      <path id="Path_10199" data-name="Path 10199" d="M2807.44,1492.84a2.208,2.208,0,0,1-2.208-2.208v-.044a2.234,2.234,0,0,1,.045-.443c.007-.061.016-.13.029-.207q.006-.035.013-.07c.023-.116.046-.255.074-.418.021-.125.045-.264.071-.415a80.825,80.825,0,0,1,4.209-15.374c3.28-8.222,7.51-13.155,12.574-14.661,5.856-1.742,12.365,1.2,19.342,8.736,3.1,3.351,4.1,6.684,2.97,9.907-1.509,4.306-6.735,7.824-15.976,10.755a127.305,127.305,0,0,1-18.34,4.088l-.031,0-1,.14c-.433.061-.784.111-1.052.143a2.232,2.232,0,0,1-.313.043A3.45,3.45,0,0,1,2807.44,1492.84Zm1.816-.657h0Zm0,0v0Zm0,0,0,0Zm0,0,0,0Zm-3.918-2.285v0Zm20.245-26.957a7.27,7.27,0,0,0-2.084.3c-3.651,1.086-7.016,5.258-9.73,12.064a74.2,74.2,0,0,0-3.638,12.736c16.782-2.592,28.632-7.227,30.254-11.852.2-.581.823-2.348-2.045-5.446C2833.546,1465.547,2829.266,1462.932,2825.59,1462.932Z" transform="translate(-2805.232 -1458.512)" fill="#300"/>
    </g>
    <g id="Group_847" data-name="Group 847" transform="translate(2626.299 1374.981)">
      <path id="Path_10200" data-name="Path 10200" d="M2729.574,1492.84a2.467,2.467,0,0,1-.4-.034c-.052-.005-.1-.011-.132-.016l-.088-.008c-.277-.031-.663-.085-1.153-.154-.294-.042-.629-.089-1-.139l-.031,0a127.288,127.288,0,0,1-18.34-4.088c-9.24-2.931-14.466-6.449-15.976-10.755-1.13-3.223-.13-6.556,2.971-9.907,6.977-7.533,13.483-10.473,19.338-8.74,5.068,1.5,9.3,6.433,12.585,14.659a80.6,80.6,0,0,1,4.223,15.387c.007.04.013.079.017.119.035.3.071.536.1.708,0,.023.009.047.013.07.013.077.022.145.029.207a2.216,2.216,0,0,1,.045.444v.044A2.208,2.208,0,0,1,2729.574,1492.84Zm2.095-2.951v0Zm-1.507-1.375h0Zm-18.728-25.582c-3.678,0-7.961,2.614-12.767,7.8-2.867,3.1-2.248,4.865-2.044,5.445,1.622,4.627,13.482,9.264,30.275,11.856-2.14-11-6.666-22.816-13.387-24.807A7.282,7.282,0,0,0,2711.434,1462.932Z" transform="translate(-2692.005 -1458.512)" fill="#300"/>
    </g>
    <g id="Group_848" data-name="Group 848" transform="translate(2698.582 1337.63)">
      <path id="Path_10201" data-name="Path 10201" d="M2939.719,1365.166a2.209,2.209,0,0,1-2.054-1.4l-2.164-5.477a4.668,4.668,0,0,0-2.645-2.658l-.026-.01-5.5-2.186a2.208,2.208,0,0,1,.007-4.107l5.5-2.164a4.753,4.753,0,0,0,2.664-2.665h0l2.164-5.476a2.208,2.208,0,0,1,4.107,0l2.164,5.476a4.757,4.757,0,0,0,2.667,2.666l5.477,2.164a2.208,2.208,0,0,1,.007,4.1l-5.477,2.186-.029.011a4.668,4.668,0,0,0-2.644,2.658l-2.164,5.477A2.207,2.207,0,0,1,2939.719,1365.166Zm-5.269-13.65a9.1,9.1,0,0,1,5.159,5.154l.11.279.11-.279a9.094,9.094,0,0,1,5.156-5.153l.3-.119-.306-.121a9.187,9.187,0,0,1-5.15-5.151l-.11-.279-.11.279h0a9.19,9.19,0,0,1-5.151,5.151l-.307.121Z" transform="translate(-2925.94 -1337.63)" fill="#300"/>
    </g>
    <g id="Group_849" data-name="Group 849" transform="translate(2599.698 1348.318)">
      <path id="Path_10202" data-name="Path 10202" d="M2617.371,1395.142a2.209,2.209,0,0,1-1.936-1.147l-2.628-4.792a2.558,2.558,0,0,0-.975-.99l-4.769-2.593a2.208,2.208,0,0,1-.007-3.876l4.792-2.628a2.392,2.392,0,0,0,.954-.95l2.632-4.8a2.208,2.208,0,0,1,1.936-1.147h0a2.209,2.209,0,0,1,1.936,1.153l2.606,4.792a2.383,2.383,0,0,0,.946.947l4.8,2.632a2.208,2.208,0,0,1-.007,3.876l-4.768,2.593a2.554,2.554,0,0,0-.971.981l-2.606,4.793a2.211,2.211,0,0,1-1.936,1.154Zm-4.645-11.469,1.239.674.041.023a6.971,6.971,0,0,1,2.677,2.719l.679,1.238.674-1.239a6.968,6.968,0,0,1,2.677-2.718l.041-.023,1.239-.674-1.246-.683a6.75,6.75,0,0,1-2.712-2.715l-.673-1.238-.683,1.246a6.752,6.752,0,0,1-2.716,2.712Z" transform="translate(-2605.911 -1372.22)" fill="#300"/>
    </g>
    <g id="Group_850" data-name="Group 850" transform="translate(2709.093 1431.302)">
      <path id="Path_10203" data-name="Path 10203" d="M2971.418,1663.691h0a2.209,2.209,0,0,1-1.937-1.147l-2.627-4.792a2.383,2.383,0,0,0-.95-.953l-4.8-2.633a2.208,2.208,0,0,1,.007-3.876l4.792-2.605a2.38,2.38,0,0,0,.947-.947l2.632-4.8a2.208,2.208,0,0,1,3.873,0l2.627,4.792a2.391,2.391,0,0,0,.95.954l4.794,2.607a2.208,2.208,0,0,1,.007,3.876l-4.792,2.628a2.392,2.392,0,0,0-.954.95l-2.632,4.8A2.208,2.208,0,0,1,2971.418,1663.691Zm-4.645-11.453,1.246.683a6.75,6.75,0,0,1,2.712,2.715l.687,1.253.692-1.261a6.745,6.745,0,0,1,2.716-2.712l1.238-.679-1.239-.674a6.75,6.75,0,0,1-2.719-2.719l-.687-1.253-.691,1.261a6.747,6.747,0,0,1-2.716,2.712Z" transform="translate(-2959.958 -1640.792)" fill="#300"/>
    </g>
    <g id="Group_851" data-name="Group 851" transform="translate(2643.994 1349.356)">
      <path id="Path_10204" data-name="Path 10204" d="M2756.1,1380h-4.616a2.208,2.208,0,0,1,0-4.417h4.616a2.208,2.208,0,0,1,0,4.417Z" transform="translate(-2749.273 -1375.579)" fill="#300"/>
    </g>
    <g id="Group_852" data-name="Group 852" transform="translate(2657.862 1349.356)">
      <path id="Path_10205" data-name="Path 10205" d="M2800.979,1380h-4.616a2.208,2.208,0,0,1,0-4.417h4.616a2.208,2.208,0,0,1,0,4.417Z" transform="translate(-2794.155 -1375.579)" fill="#300"/>
    </g>
    <g id="Group_853" data-name="Group 853" transform="translate(2653.247 1356.289)">
      <path id="Path_10206" data-name="Path 10206" d="M2781.426,1407.051a2.208,2.208,0,0,1-2.208-2.208v-4.615a2.208,2.208,0,1,1,4.416,0v4.615A2.208,2.208,0,0,1,2781.426,1407.051Z" transform="translate(-2779.218 -1398.019)" fill="#300"/>
    </g>
    <g id="Group_854" data-name="Group 854" transform="translate(2653.247 1337.785)">
      <path id="Path_10207" data-name="Path 10207" d="M2781.426,1347.162a2.208,2.208,0,0,1-2.208-2.208v-4.615a2.208,2.208,0,1,1,4.416,0v4.615A2.208,2.208,0,0,1,2781.426,1347.162Z" transform="translate(-2779.218 -1338.13)" fill="#300"/>
    </g>
    <g id="Group_855" data-name="Group 855" transform="translate(2714.326 1389.943)">
      <path id="Path_10208" data-name="Path 10208" d="M2982.791,1511.351H2979.1a2.208,2.208,0,0,1,0-4.416h3.688a2.208,2.208,0,1,1,0,4.416Z" transform="translate(-2976.895 -1506.935)" fill="#300"/>
    </g>
    <g id="Group_856" data-name="Group 856" transform="translate(2725.411 1389.943)">
      <path id="Path_10209" data-name="Path 10209" d="M3018.667,1511.351h-3.687a2.208,2.208,0,1,1,0-4.416h3.687a2.208,2.208,0,1,1,0,4.416Z" transform="translate(-3012.772 -1506.935)" fill="#300"/>
    </g>
    <g id="Group_857" data-name="Group 857" transform="translate(2721.701 1395.485)">
      <path id="Path_10210" data-name="Path 10210" d="M3002.973,1532.977a2.208,2.208,0,0,1-2.208-2.208v-3.688a2.208,2.208,0,1,1,4.417,0v3.688A2.208,2.208,0,0,1,3002.973,1532.977Z" transform="translate(-3000.765 -1524.873)" fill="#300"/>
    </g>
    <g id="Group_858" data-name="Group 858" transform="translate(2721.701 1380.712)">
      <path id="Path_10211" data-name="Path 10211" d="M3002.973,1485.166a2.208,2.208,0,0,1-2.208-2.208v-3.688a2.208,2.208,0,0,1,4.417,0v3.688A2.208,2.208,0,0,1,3002.973,1485.166Z" transform="translate(-3000.765 -1477.062)" fill="#300"/>
    </g>
    <g id="Group_872" data-name="Group 872" transform="translate(2596.919 1430.445)">
      <path id="Path_10212" data-name="Path 10212" d="M2623.454,1651.322l1.288-1.8,11.228-2.915,7.684,4.633,1.525,4.149,5.106,2.023,5.235,10.965-12.829,32.234-15.434-5.7-3.956,6.165-22.559-15.019Z" transform="translate(-2599.561 -1643.954)" fill="#ffbe00" stroke="#000" stroke-width="1"/>
      <g id="Group_871" data-name="Group 871">
        <g id="Group_870" data-name="Group 870">
          <g id="Group_869" data-name="Group 869">
            <g id="Group_859" data-name="Group 859" transform="translate(36.254 2.23)">
              <path id="Path_10213" data-name="Path 10213" d="M2719.615,1650.074a.935.935,0,0,1-.434-.151l-4.5-2.959a.942.942,0,0,1,1.034-1.574l4.5,2.959a.942.942,0,0,1-.6,1.725Z" transform="translate(-2714.253 -1645.235)" stroke="#300" stroke-width="5"/>
            </g>
            <g id="Group_860" data-name="Group 860" transform="translate(40.757 5.199)">
              <path id="Path_10214" data-name="Path 10214" d="M2732.936,1658.862a.938.938,0,0,1-.434-.151l-3.252-2.14a.942.942,0,1,1,1.035-1.573l3.252,2.14a.942.942,0,0,1-.6,1.725Z" transform="translate(-2728.825 -1654.842)" stroke="#300" stroke-width="5"/>
            </g>
            <g id="Group_861" data-name="Group 861" transform="translate(0 4.735)">
              <path id="Path_10215" data-name="Path 10215" d="M2620.623,1706.762a.943.943,0,0,1-.436-.152l-22.844-15.052a.942.942,0,0,1-.268-1.3l14.954-22.692,9.092-13.794a.942.942,0,0,1,1.572,1.036L2613.6,1668.6l-14.436,21.906,21.272,14.016,14.677-22.282,8.6-13.053a.942.942,0,1,1,1.572,1.036l-8.6,13.053-15.195,23.068a.942.942,0,0,1-.869.42Z" transform="translate(-2596.919 -1653.344)" stroke="#300" stroke-width="5"/>
            </g>
            <g id="Group_862" data-name="Group 862" transform="translate(24.046 2.23)">
              <path id="Path_10216" data-name="Path 10216" d="M2675.6,1649.62a.942.942,0,0,1-.107-1.86l12.208-2.506a.942.942,0,0,1,.379,1.845l-12.208,2.506A.932.932,0,0,1,2675.6,1649.62Z" transform="translate(-2674.742 -1645.234)" stroke="#300" stroke-width="5"/>
            </g>
            <g id="Group_863" data-name="Group 863" transform="translate(44.009 7.338)">
              <path id="Path_10217" data-name="Path 10217" d="M2742.841,1676.463a.941.941,0,0,1-.839-.749l-2.036-9.926-.6-2.887a.942.942,0,1,1,1.844-.381l.6,2.889,2.036,9.928a.942.942,0,0,1-1.006,1.127Z" transform="translate(-2739.351 -1661.768)" stroke="#300" stroke-width="5"/>
            </g>
            <g id="Group_864" data-name="Group 864" transform="translate(44.596 10.227)">
              <path id="Path_10218" data-name="Path 10218" d="M2748.232,1675.379a.931.931,0,0,1-.259-.061l-6.055-2.36a.942.942,0,0,1,.356-1.839h.01a.962.962,0,0,1,.259.061l6.114,2.383a.942.942,0,0,1-.425,1.816Z" transform="translate(-2741.25 -1671.115)" stroke="#300" stroke-width="5"/>
            </g>
            <g id="Group_865" data-name="Group 865" transform="translate(26.896 22.554)">
              <path id="Path_10219" data-name="Path 10219" d="M2700.014,1746.363a.952.952,0,0,1-.259-.061l-15.121-5.892a.942.942,0,0,1,.356-1.84h.01a.925.925,0,0,1,.259.06l14.3,5.573,7.973-20.5,4.7-12.092a.942.942,0,0,1,1.756.682l-4.7,12.093-8.315,21.378a.942.942,0,0,1-.96.6Z" transform="translate(-2683.965 -1711.012)" stroke="#300" stroke-width="5"/>
            </g>
            <g id="Group_866" data-name="Group 866" transform="translate(50.719 12.601)">
              <path id="Path_10220" data-name="Path 10220" d="M2766.307,1690.623a.941.941,0,0,1-.78-.558l-3.828-8.685-.551-1.249a.941.941,0,0,1-.077-.463v-.01a.942.942,0,0,1,1.834-.209l.516,1.17,3.829,8.686a.942.942,0,0,1-.944,1.318Z" transform="translate(-2761.068 -1678.799)" stroke="#300" stroke-width="5"/>
            </g>
            <g id="Group_867" data-name="Group 867" transform="translate(32.55 9.323)">
              <path id="Path_10221" data-name="Path 10221" d="M2705.789,1675.91a3.866,3.866,0,1,1,3.577-1.73l0,0a3.886,3.886,0,0,1-3.574,1.726Zm.519-5.827a2,2,0,0,0-.574.033,1.982,1.982,0,0,0,.8,3.883,1.983,1.983,0,0,0-.223-3.917Zm2.271,3.581h0Z" transform="translate(-2702.264 -1668.191)" stroke="#300" stroke-width="5"/>
            </g>
            <g id="Group_868" data-name="Group 868" transform="translate(37.089)">
              <path id="Path_10222" data-name="Path 10222" d="M2732,1653.757a.942.942,0,0,1-.212-1.833,4.979,4.979,0,0,0,3.177-2.42c.6-1.285.462-3.048-.41-5.24-1.021-2.561-2.336-4.009-3.911-4.3-2.725-.508-6.015,2.289-8.319,4.758a.9.9,0,0,1-.064.077,41.336,41.336,0,0,0-3.576,4.486.942.942,0,1,1-1.568-1.044,42.651,42.651,0,0,1,3.693-4.646.916.916,0,0,1,.069-.084c3.824-4.12,7.225-5.937,10.11-5.4,2.252.42,4.04,2.256,5.316,5.457,1.072,2.694,1.2,4.96.367,6.734a6.757,6.757,0,0,1-4.294,3.412A.931.931,0,0,1,2732,1653.757Z" transform="translate(-2716.955 -1638.018)" stroke="#300" stroke-width="5"/>
            </g>
          </g>
        </g>
      </g>
    </g>
  </g>
</svg>
