<svg xmlns="http://www.w3.org/2000/svg" width="129.185" height="92" viewBox="0 0 129.185 92">
  <g id="Group_875" data-name="Group 875" transform="translate(-1313.5 -2144.129)">
    <path id="Path_10228" data-name="Path 10228" d="M6647,2023h19l20,14.5,4.5,3.5h6.5l3,2.5v4.5l2.5,4.5,2,2.5-2,4,19,20.5v20l-31-30H6673V2059l-4-4v-5l-3-2Z" transform="translate(-5282 124.629)" fill="#fab80a"/>
    <g id="Group_874" data-name="Group 874" transform="translate(1268 1932.629)">
      <path id="Path_10223" data-name="Path 10223" d="M168.531,287.719v5.313a5.311,5.311,0,0,1-5.312,5.313H54.313A5.311,5.311,0,0,1,49,293.031V221.313A5.311,5.311,0,0,1,54.313,216h42.5" transform="translate(0 1.656)" fill="none" stroke="#300" stroke-linecap="round" stroke-linejoin="round" stroke-width="7"/>
      <path id="Path_10224" data-name="Path 10224" d="M75,216h45.156a5.311,5.311,0,0,1,5.313,5.313v45.156" transform="translate(43.063 1.656)" fill="none" stroke="#300" stroke-linecap="round" stroke-linejoin="round" stroke-width="7"/>
      <path id="Path_10225" data-name="Path 10225" d="M103.188,230.938,87.25,215H66l26.564,26.563" transform="translate(28.156)" fill="none" stroke="#300" stroke-linecap="round" stroke-linejoin="round" stroke-width="7"/>
      <path id="Path_10226" data-name="Path 10226" d="M84,239.625l29.212,29.212,0-21.246L94.625,229" transform="translate(57.969 23.188)" fill="none" stroke="#300" stroke-linecap="round" stroke-linejoin="round" stroke-width="7"/>
      <path id="Path_10227" data-name="Path 10227" d="M93.594,220l5.313,5.313h7.969v7.969l5.313,5.313-5.312,5.313v7.969H98.906l-5.312,5.313-5.312-5.312H80.313v-7.969L75,238.594l5.313-5.312v-7.969h7.969Z" transform="translate(43.063 8.281)" fill="none" stroke="#300" stroke-width="7"/>
      <rect id="Rectangle_439" data-name="Rectangle 439" width="13" height="16" rx="2" transform="translate(65 244)" fill="none" stroke="#fab80a" stroke-linecap="round" stroke-linejoin="round" stroke-width="7"/>
      <rect id="Rectangle_440" data-name="Rectangle 440" width="13" height="16" rx="2" transform="translate(89 268)" fill="none" stroke="#fab80a" stroke-linecap="round" stroke-linejoin="round" stroke-width="7"/>
      <line id="Line_1" data-name="Line 1" x1="31" y2="40" transform="translate(68 244)" fill="none" stroke="#fab80a" stroke-linecap="round" stroke-linejoin="round" stroke-width="7"/>
    </g>
  </g>
</svg>
