<svg xmlns="http://www.w3.org/2000/svg" xmlns:xlink="http://www.w3.org/1999/xlink" width="121.774" height="117.411" viewBox="0 0 121.774 117.411">
  <defs>
    <clipPath id="clip-path">
      <path id="Path_9938" data-name="Path 9938" d="M207.064-41.25a1.45,1.45,0,0,1-.594.253h0a2.857,2.857,0,0,1,.58,1.347h0a2.28,2.28,0,0,1,.847-1.269h0a1.5,1.5,0,0,1-.5-.668h0Zm-.182,6.152a1.508,1.508,0,0,1-.682,1.259h0a3.176,3.176,0,0,1,.837.9h0a3.007,3.007,0,0,1,.28.678h0a1.911,1.911,0,0,1,.638-.614h0l.142-.088-.294-.128a1.5,1.5,0,0,1-.763-1.306h0c0-.216-.03-.56-.067-.979h0c-.01-.152-.02-.3-.034-.445h0a7.175,7.175,0,0,0-.057.722m-19.345,3.264a15.644,15.644,0,0,0-2.97-1.694h0a15.728,15.728,0,0,0,2.97,1.694m36.534,1.61a3.47,3.47,0,0,1,.53-.044h0a2.783,2.783,0,0,1,.655.074h0v-.01a1.477,1.477,0,0,1,.348-.989h0l-.253.02a1.545,1.545,0,0,1-.7-.169h0a2.381,2.381,0,0,1-.58,1.117m-34.64-.648-.233-.017a1.488,1.488,0,0,1,.364.985h0v0a3.035,3.035,0,0,1,.705-.084h0a2.927,2.927,0,0,1,.513.044h0a2.4,2.4,0,0,1-.611-1.127h0a1.5,1.5,0,0,1-.739.2m7.489,3.6a1.488,1.488,0,0,1-.766.209h0a1.489,1.489,0,0,1-.483-.078h0a1.52,1.52,0,0,1,.294.9h0l-.034.321.277-.159a1.848,1.848,0,0,1,.9-.223h0a3.073,3.073,0,0,1,1.033.213h0a2.524,2.524,0,0,1-.56-1.5h0c-.007-.155-.01-.307-.013-.462h0a1.515,1.515,0,0,1-.648.78m20.82-.216a2,2,0,0,1-.3,1.039h0l.361-.03a2.275,2.275,0,0,1,.871.209h0l.28.152-.037-.314a1.463,1.463,0,0,1,.257-.874h0l-.432.061a1.468,1.468,0,0,1-.742-.2h0l-.26-.189Zm-12.3,5.795A1.494,1.494,0,0,1,206.2-20.4h0a1.506,1.506,0,0,1-.732,1.3h0c-.246.148-.685.452-1.232.834h0c.442-.189.9-.381,1.384-.574h0a1.439,1.439,0,0,1,.567-.111h0a1.531,1.531,0,0,1,.837.253h0l.081.061a1.544,1.544,0,0,1,.682-.85h0a1.509,1.509,0,0,1,.753-.2h0a1.483,1.483,0,0,1,.486.081h0a1.488,1.488,0,0,1-.246-.813h0a1.533,1.533,0,0,1,.243-.834h0a1.382,1.382,0,0,1-.483.081h0a1.487,1.487,0,0,1-.739-.2h0a1.48,1.48,0,0,1-.668-.793h0l-.118.088a1.489,1.489,0,0,1-.847.256h0a1.486,1.486,0,0,1-.567-.108h0c-.466-.182-.918-.361-1.347-.54h0c.547.364.972.651,1.188.776m13.017,6.6a2.028,2.028,0,0,1-.992.243h-.091l.243.324a3.04,3.04,0,0,1,.4,1.039h0l.1-.064a1.48,1.48,0,0,1,.766-.209h0l.121,0a1.5,1.5,0,0,1-.459-1.09h0l.037-.317Zm-21.94.432a1.475,1.475,0,0,1-.435,1.09h0l.142,0a1.456,1.456,0,0,1,.742.2h0a1.5,1.5,0,0,1,.709.915h0c.01-.2.017-.388.017-.58h0a2.746,2.746,0,0,1,.732-1.775h0a3.008,3.008,0,0,1-.861.142h0a2.054,2.054,0,0,1-.962-.229h0l-.122-.067Zm28.012,3.79a2.692,2.692,0,0,1-.564-.061h0a3.012,3.012,0,0,1,.557,1.046h0a1.512,1.512,0,0,1,.766-.209h0l.27.024a1.508,1.508,0,0,1-.337-.908h0a2.217,2.217,0,0,1-.692.108M189.6-9.772l.29-.03a1.46,1.46,0,0,1,.743.2h0a2.894,2.894,0,0,1,.54-1.053h0a2.71,2.71,0,0,1-.607.071h0a2.279,2.279,0,0,1-.648-.094h0a1.508,1.508,0,0,1-.321.908M207.017-8.4a3.349,3.349,0,0,1-.84.921h0a1.493,1.493,0,0,1,.648,1.232h0c0,.216.027.54.057.921h0l.017.219c.02-.24.04-.476.061-.7h0c.041-.435.081-.834.081-1.137h0A1.5,1.5,0,0,1,207.8-8.25h0l.3-.128a2.359,2.359,0,0,1-.763-.834h0a2.985,2.985,0,0,1-.321.813M185-7.042a15.894,15.894,0,0,0,2.933-1.731h0A15.672,15.672,0,0,0,185-7.042m21.066,6.9a1.505,1.505,0,0,1,.7,1.272h0c0,.273-.027.682-.071,1.158h0c-.186,2.254-.118,3.561.155,3.854h.051l-.01.027c.354-.341.429-1.758.219-4.215h0c-.037-.506-.074-.931-.074-1.218h0A1.5,1.5,0,0,1,207.8-.569h0v0a3.431,3.431,0,0,1-.84-1.758h0a3.217,3.217,0,0,1-.894,2.19" transform="translate(-184.567 41.588)" fill="none"/>
    </clipPath>
    <radialGradient id="radial-gradient" cx="0.039" cy="2.295" r="0.333" gradientUnits="objectBoundingBox">
      <stop offset="0"/>
      <stop offset="0" stop-color="#fafbfb"/>
      <stop offset="0.1" stop-color="#f1f9fa"/>
      <stop offset="0.2" stop-color="#e7f5fa"/>
      <stop offset="0.3" stop-color="#def3fa"/>
      <stop offset="0.4" stop-color="#d6f1fb"/>
      <stop offset="0.5" stop-color="#cff0fb"/>
      <stop offset="0.6" stop-color="#c5eefb"/>
      <stop offset="0.7" stop-color="#bcebfa"/>
      <stop offset="0.8" stop-color="#b4e9fa"/>
      <stop offset="0.9" stop-color="#ade6f9"/>
      <stop offset="1" stop-color="#a6e4f8"/>
    </radialGradient>
    <radialGradient id="radial-gradient-2" cx="0.039" cy="2.295" r="0.07" gradientUnits="objectBoundingBox">
      <stop offset="0" stop-color="#fbfcfb"/>
      <stop offset="0.1" stop-color="#fbfcfb"/>
      <stop offset="0.2" stop-color="#fbfcfb"/>
      <stop offset="0.3" stop-color="#fbfcfb"/>
      <stop offset="0.4" stop-color="#fbfcfb"/>
      <stop offset="0.5" stop-color="#fbfcfb"/>
      <stop offset="0.6" stop-color="#fbfcfb"/>
      <stop offset="0.7" stop-color="#fbfcfb"/>
      <stop offset="0.8" stop-color="#fbfcfb"/>
      <stop offset="0.9" stop-color="#fbfcfb"/>
      <stop offset="1" stop-color="#fbfcfb"/>
      <stop offset="1"/>
    </radialGradient>
  </defs>
  <g id="Group_357" data-name="Group 357" transform="translate(-897.107 -3160.329)">
    <g id="Group_347" data-name="Group 347" transform="translate(898.119 3163.329)">
      <g id="Group_337" data-name="Group 337" transform="translate(66.799 19.939)">
        <path id="Path_9933" data-name="Path 9933" d="M31.622.066A9.313,9.313,0,0,0,24.66,1.844a9.874,9.874,0,0,0-3.716,6.382l-.732,30.9a9.687,9.687,0,0,0-6.79-1.951,9.728,9.728,0,0,0-6.314,3.459l-19.939,24.9a1.588,1.588,0,0,0-.483,1.12V91.594a1.885,1.885,0,0,0,1.91,1.849H13.421a2.031,2.031,0,0,0,1.907-1.768c.041-.621.85-2.632,4.4-8.852a12.4,12.4,0,0,0,.7-1.249c.381-.739,3.638-4.681,6.439-8.177C35.78,62.468,39.027,58.28,39.324,56.582c.479-2.508.26-38.893.216-45.842A9.443,9.443,0,0,0,31.622.066m4.026,55.751c-.557,1.593-7.526,10.155-11.671,15.241-4.678,5.754-6.5,7.965-6.888,8.819-.084.132-.3.574-.553,1.039a72.773,72.773,0,0,0-4.543,8.771H-9.555V67.338L10,42.975a5.951,5.951,0,0,1,3.8-2.082A5.77,5.77,0,0,1,17.964,42.1a5.476,5.476,0,0,1,2.022,3.712l-.044,1.7a5,5,0,0,1-1.164,2.545L7.059,64.669A1.845,1.845,0,0,0,7.316,67.3a1.9,1.9,0,0,0,2.639-.25L21.727,52.394a8.729,8.729,0,0,0,1.893-4.2,1.3,1.3,0,0,0,.04-.388,6.4,6.4,0,0,0,.148-2.119L24.66,8.53a5.755,5.755,0,0,1,2.207-3.665,5.512,5.512,0,0,1,4.246-1.087,5.729,5.729,0,0,1,4.7,6.713c.088,17.155.088,43.405-.169,45.325" transform="translate(13.315 0.028)" fill="#300" stroke="#300" stroke-width="2"/>
      </g>
      <g id="Group_338" data-name="Group 338" transform="translate(0 19.94)">
        <path id="Path_9934" data-name="Path 9934" d="M22.9,28.617a9.745,9.745,0,0,0-6.314-3.459,9.472,9.472,0,0,0-6.736,1.951l-.83-31.1a9.214,9.214,0,0,0-3.672-6.183,9.352,9.352,0,0,0-6.969-1.779A9.282,9.282,0,0,0-9.535-1.578c-.041,7.243-.213,43.631.216,46.139.3,1.7,3.544,5.886,12.453,16.814,2.808,3.493,6.055,7.438,6.436,8.177.047.169.358.547.7,1.249,3.557,6.217,4.421,8.231,4.462,8.852a1.848,1.848,0,0,0,1.853,1.768H41.41a1.882,1.882,0,0,0,1.907-1.849V54.641a1.783,1.783,0,0,0-.425-1.124ZM39.557,77.665H18.008a69.662,69.662,0,0,0-4.482-8.771,5.711,5.711,0,0,1-.574-1.043C12.527,67,10.7,64.786,6.081,59.036,1.886,53.949-5.086,45.387-5.643,43.929-5.9,41.871-5.9,15.624-5.815-1.848a5.583,5.583,0,0,1,4.755-6.4A5.252,5.252,0,0,1,3.091-7.157,5.463,5.463,0,0,1,5.3-3.708l.958,37.374a11.536,11.536,0,0,0,.04,2.123,1.388,1.388,0,0,0,.084.385,9.718,9.718,0,0,0,1.853,4.2L20.047,55.029a1.875,1.875,0,0,0,2.9-2.383L11.181,38.037a5.282,5.282,0,0,1-1.124-2.545l-.044-1.7a5.458,5.458,0,0,1,2.028-3.712A5.839,5.839,0,0,1,16.2,28.87a5.838,5.838,0,0,1,3.8,2.13L39.557,55.316Z" transform="translate(9.642 12.05)" fill="#300" stroke="#300" stroke-width="2"/>
      </g>
      <g id="Group_339" data-name="Group 339" transform="translate(37.139 7.78)">
        <path id="Path_9935" data-name="Path 9935" d="M15.72,33.591l-.051,0c-.273-.294-.341-1.6-.155-3.854.041-.476.071-.881.071-1.158a1.5,1.5,0,0,0-.7-1.272,3.219,3.219,0,0,0,.894-2.194,3.418,3.418,0,0,0,.844,1.765l-.007,0a1.5,1.5,0,0,0-.759,1.3c0,.287.034.712.078,1.218.206,2.457.132,3.874-.219,4.215ZM15.7,22.12c-.03-.381-.057-.705-.057-.918a1.5,1.5,0,0,0-.648-1.235,3.37,3.37,0,0,0,.844-.921,2.984,2.984,0,0,0,.317-.813,2.359,2.359,0,0,0,.763.834l-.3.128a1.5,1.5,0,0,0-.759,1.306c0,.307-.041.7-.081,1.141-.02.223-.041.459-.061.7Zm-21.88-1.714A15.621,15.621,0,0,1-3.251,18.67a16.1,16.1,0,0,1-2.933,1.735M-.558,17.84a1.49,1.49,0,0,0-.742-.2l-.29.027a1.487,1.487,0,0,0,.321-.908,2.166,2.166,0,0,0,.648.094,2.71,2.71,0,0,0,.607-.071,2.975,2.975,0,0,0-.54,1.053Zm33.894-.277a2.979,2.979,0,0,0-.56-1.05,2.747,2.747,0,0,0,.567.061,2.318,2.318,0,0,0,.692-.1,1.507,1.507,0,0,0,.337.9l-.27-.024a1.522,1.522,0,0,0-.766.209ZM6.489,14.982a1.5,1.5,0,0,0-1.451-1.11l-.142.007a1.5,1.5,0,0,0,.439-1.09l-.041-.317.125.064a1.99,1.99,0,0,0,.955.233,3.142,3.142,0,0,0,.867-.138A2.718,2.718,0,0,0,6.506,14.4c0,.192-.007.385-.017.58m20.347-1.023a3.041,3.041,0,0,0-.4-1.039l-.243-.321h.091a1.994,1.994,0,0,0,.992-.246l.132-.071-.037.321a1.484,1.484,0,0,0,.459,1.087l-.121,0a1.48,1.48,0,0,0-.766.209ZM13.053,9.18c.543-.378.979-.685,1.225-.83a1.5,1.5,0,0,0-.02-2.6c-.219-.125-.645-.408-1.191-.773.429.175.877.354,1.347.54a1.562,1.562,0,0,0,.567.1,1.512,1.512,0,0,0,.847-.253l.118-.088a1.493,1.493,0,0,0,1.407.985,1.461,1.461,0,0,0,.483-.078,1.486,1.486,0,0,0-.243.83,1.508,1.508,0,0,0,.246.813,1.492,1.492,0,0,0-1.235.121,1.515,1.515,0,0,0-.682.85l-.084-.061a1.506,1.506,0,0,0-1.4-.142c-.479.2-.942.388-1.38.574M4.741,1.526l.037-.317a1.475,1.475,0,0,0-.294-.9,1.586,1.586,0,0,0,.483.078A1.512,1.512,0,0,0,5.733.179,1.49,1.49,0,0,0,6.378-.6c.007.152.013.3.017.459a2.538,2.538,0,0,0,.56,1.5,3.088,3.088,0,0,0-1.033-.216,1.807,1.807,0,0,0-.9.229Zm22.747-.344a2.217,2.217,0,0,0-.867-.213L26.26,1a2.02,2.02,0,0,0,.294-1.036V-.182l.26.189a1.512,1.512,0,0,0,.746.2l.429-.061a1.5,1.5,0,0,0-.26.874l.04.314ZM-1.621-2.46a1.505,1.505,0,0,0-.364-.985l.233.017a1.519,1.519,0,0,0,.739-.192A2.367,2.367,0,0,0-.406-2.5a3.289,3.289,0,0,0-.513-.044,2.817,2.817,0,0,0-.7.088Zm35.69-.29a2.782,2.782,0,0,0-.655-.074,3.471,3.471,0,0,0-.53.044,2.407,2.407,0,0,0,.58-1.12,1.466,1.466,0,0,0,.7.172l.253-.02a1.5,1.5,0,0,0-.348.992ZM-3.649-4.39a15.786,15.786,0,0,1-2.97-1.691A15.272,15.272,0,0,1-3.649-4.39m19.78-.425a3.007,3.007,0,0,0-.28-.678,3.256,3.256,0,0,0-.834-.9A1.5,1.5,0,0,0,15.7-7.651a7.223,7.223,0,0,1,.057-.726c.01.145.024.294.034.449.034.412.067.763.067.975a1.5,1.5,0,0,0,.759,1.306l.3.128-.145.088a1.933,1.933,0,0,0-.634.614m-.267-7.391a2.8,2.8,0,0,0-.58-1.343,1.524,1.524,0,0,0,.594-.256l.337-.337a1.5,1.5,0,0,0,.5.668,2.292,2.292,0,0,0-.847,1.269" transform="translate(6.619 14.144)" fill="#ffbd00"/>
      </g>
      <g id="Group_342" data-name="Group 342" transform="translate(37.139 7.781)" clip-path="url(#clip-path)">
        <g id="Group_341" data-name="Group 341" transform="translate(-622.901 -44.958)">
          <path id="Path_9937" data-name="Path 9937" d="M-14.687-126H1255.145V59.315H-14.687Z" transform="translate(14.687 126)" fill="url(#radial-gradient)"/>
        </g>
      </g>
      <g id="Group_344" data-name="Group 344" transform="translate(37.139 7.781)" clip-path="url(#clip-path)">
        <g id="Group_343" data-name="Group 343" transform="translate(-622.901 -44.958)">
          <path id="Path_9939" data-name="Path 9939" d="M-14.687-126H1255.145V59.315H-14.687Z" transform="translate(14.687 126)" fill="url(#radial-gradient-2)"/>
        </g>
      </g>
      <g id="Group_345" data-name="Group 345" transform="translate(34.88 -3)">
        <path id="Path_9941" data-name="Path 9941" d="M17.669,0c-.884,0-1.276,1.276-1.546,2.535a9.69,9.69,0,0,0-.074,2.943c.014.314.044.631.061.945a11.183,11.183,0,0,1-1.4-.705,3.943,3.943,0,0,0-1.951-.688A1.771,1.771,0,0,0,12.2,5.1a.338.338,0,0,0-.27.331c.061,2.251.948,2.744,2.416,3.557.27.162.587.344.918.553.479.287.253,2.521.135,3.571-.03.226-.047.513-.061.705-.2-.118-.391-.1-.57-.223a9.144,9.144,0,0,0-4.441-1.711,2.058,2.058,0,0,0-.317-.03v.014H9.835L9.6,11.7H9.5l.044.648a2.5,2.5,0,0,0,1.576,2.565,16.424,16.424,0,0,0,1.532.705c1.141.5,2.717,1.154,3.048,1.741.358.584.283,2.447.24,3.54-.017.331-.017.614-.017.81,0,.753.047,1.471.091,2.19.03.557.074,1.114.091,1.667-4.249-1.694-6.426-2.987-6.439-3.827-.013-.989-.1-1.964-.179-2.94s-.152-1.937-.182-2.913a2.346,2.346,0,0,0-1.424-2.4c-.2-.138-.4-.273-.645-.435L7.044,13l-.074.014-.213.165c-.989,1.876-.871,4.006-.749,6.048.013.344.044.692.061,1.036-.165-.074-.344-.165-.54-.256-.992-.449-3.287-1.529-3.3-2.13l-.088-3.753A1.762,1.762,0,0,0,.922,12.427a4.347,4.347,0,0,1-.513-.287L.23,12.1l-.24.1c-.945.992-.81,2.491-.692,3.814l.017.344-.226-.165c-1.276-.871-3.392-2.325-4.877-2.325a1.561,1.561,0,0,0-1.441.793,1.475,1.475,0,0,0-.135,1.232c.466,1.471,3.108,2.7,4.668,3.436l.283.135-.327.152c-1.218.584-2.6,1.228-2.987,2.565l.061.3a2.092,2.092,0,0,0,1.573.854l.422-.044A10.1,10.1,0,0,0-.894,21.924c.314-.209.645-.418.975-.6a.805.805,0,0,1,.449-.1,6.743,6.743,0,0,1,2.987,1.5c.2.135.375.27.54.375-.287.152-.57.3-.854.452a10.546,10.546,0,0,0-4.475,3.422l-.027.27.179.209.584.283A3.378,3.378,0,0,0,.875,28.2a3.043,3.043,0,0,0,1.471-.51l3.122-1.741,1.89-1.05c.84,0,4.293,2.295,5.943,3.405.4.27.749.51,1.036.692-.27.165-.587.4-.962.658-1.6,1.114-4.576,3.2-5.643,3.2L2.768,30.179A4.122,4.122,0,0,0,.952,29.5a4.087,4.087,0,0,0-1.711.584l-.348.165-.165.213.03.27c1.141,1.738,3.017,2.656,4.85,3.527.327.165.675.327,1.019.51-.152.088-.314.2-.479.314-.945.675-2.538,1.8-3.439,1.8H.679l-3.314-1.772a1.878,1.878,0,0,0-.871-.226,2.233,2.233,0,0,0-1.2.466,4.573,4.573,0,0,1-.5.3l-.148.391c.4,1.32,1.772,1.934,2.97,2.491l.317.135-.27.135c-1.546.766-4.144,2.025-4.593,3.5a1.49,1.49,0,0,0,.165,1.232,1.529,1.529,0,0,0,1.411.763c1.5,0,3.618-1.515,4.894-2.416l.24-.179-.017.375c-.1,1.336-.209,2.869.766,3.858l.24.091.165-.047.4-.223c.57-.287,1.276-.631,1.276-1.336l.017-3.962c.013-.931,1.681-1.725,2.909-2.312.209-.1.422-.2.6-.284-.013.314-.03.645-.03.975a10.305,10.305,0,0,0,.78,5.569l.226.162h.074l.2-.057c.2-.152.391-.27.57-.391A2.191,2.191,0,0,0,9.3,42.065a22.154,22.154,0,0,1,.24-2.838,26.371,26.371,0,0,0,.256-2.9c0-.854,2.13-2.177,6.3-3.915-.014.466-.061.915-.1,1.35-.061.631-.122,1.259-.122,1.92,0,.226.017.54.03.9a9.951,9.951,0,0,1-.192,3.466c-.361.584-1.863,1.276-2.973,1.772a14.316,14.316,0,0,0-1.411.719c-1.5.9-1.59,1.32-1.725,2.956l-.03.391.091.479.24.51H9.91c1.876-1.664,3.243-1.38,4.7-2.325.226-.148.435-.705.661-.857.013.152.027.317.044.5.074,1.006.27,3.392-.256,3.692-.388.24-.763.435-1.093.614-1.458.783-2.416,1.293-2.464,3.469a.359.359,0,0,0,.256.344,2.423,2.423,0,0,0,.57.061A4.909,4.909,0,0,0,15,51.235l.165-.1-.027.375c-.138,1.65-.348,4.155.675,5.282a1.764,1.764,0,0,0,1.35.553,1.7,1.7,0,0,0,1.35-.57c1.066-1.154.84-3.824.692-5.6a4.053,4.053,0,0,1-.03-.435l.314.226a6.058,6.058,0,0,0,3.183,1.411,2.442,2.442,0,0,0,.57-.061.353.353,0,0,0,.253-.331c0-.135.017-.283.017-.449.044-.648.1-1.411-.5-1.772l-3.466-2.055c-.81-.5-.631-2.416-.5-3.871.017-.256.044-.391.061-.618.331.209.661.631,1.006.857,1.711,1.141,3.48,1.141,5.582,2.8h.013l.243-.51.088-.692c-.03-.24-.044-.462-.061-.658a2.272,2.272,0,0,0-1.35-2.386L19.38,39.47c-.84-.513-.51-4.563-.361-6.5.03-.466.074-.884.091-1.228l3.183,1.816a11.475,11.475,0,0,0,1.228.6,8.2,8.2,0,0,1,2.808,1.681c.388.587.24,2.464.135,3.709-.03.57-.078,1.08-.078,1.424.047,1.968.213,2.146,1.7,3.183l.283.2.182.061.088-.017.213-.165a10.531,10.531,0,0,0,.705-5.582c-.03-.331-.047-.661-.061-.975.2.091.391.179.6.283,1.245.557,2.926,1.323,2.94,2.251l.078,3.618c.027.992.6,1.289,1.215,1.606a3.728,3.728,0,0,1,.493.27L35,45.74l.24-.1c.945-1.006.827-2.521.705-3.858l-.03-.4,3.122,1.785a3.222,3.222,0,0,0,1.606.6,4.041,4.041,0,0,0,1.394-.375l.287-.1a.335.335,0,0,0,.209-.375l-.091-.5a2.262,2.262,0,0,0-1.411-2.116l-3.361-1.92.348-.165c1.2-.584,2.551-1.232,2.94-2.551a.325.325,0,0,0-.165-.375l-.4-.256a2.535,2.535,0,0,0-1.306-.553,1.029,1.029,0,0,0-.51.135l-3.631,2.025-.165.03c-.749,0-2.369-1.11-3.345-1.785-.165-.121-.317-.226-.466-.314.331-.182.675-.348,1.006-.526,1.816-.9,3.675-1.846,4.786-3.618l.03-.27-.179-.209-.587-.27a3.138,3.138,0,0,0-1.411-.466,2.828,2.828,0,0,0-1.441.5l-5.447,2.987c-.975,0-3.993-2.028-5.613-3.108-.361-.253-.688-.479-.958-.645.27-.179.614-.418,1.006-.692,1.65-1.137,5.086-3.51,5.913-3.523l4.607,2.474a4.077,4.077,0,0,0,1.86.692,4.094,4.094,0,0,0,1.741-.6l.3-.135.179-.209-.03-.287a10.512,10.512,0,0,0-4.533-3.345c-.283-.152-.584-.287-.871-.435.165-.121.348-.243.54-.378.948-.705,2.133-1.559,2.987-1.559a.857.857,0,0,1,.435.1l3.183,1.711a1.79,1.79,0,0,0,.78.209,2.309,2.309,0,0,0,1.215-.479,3.918,3.918,0,0,1,.483-.3l.165-.391c-.422-1.32-1.8-1.951-3.034-2.5l-.358-.165c.3-.165.614-.314.9-.479,1.741-.888,3.544-1.8,3.874-3.993a.834.834,0,0,0-.165-.692,1.3,1.3,0,0,0-1.006-.344,5.2,5.2,0,0,0-1.981.466L35.961,16.1l.017-.4c.1-1.32.209-2.8-.749-3.8l-.243-.091-.179.047c-.121.074-.27.148-.418.226-.557.283-1.262.645-1.262,1.38l-.013,4.155c0,.618-2.281,1.728-3.257,2.194-.182.088-.361.179-.513.253.017-.375.03-.766.047-1.141.091-2.011.2-4.1-.8-5.926l-.226-.165-.074-.017-.2.078-.54.375a2.375,2.375,0,0,0-1.363,2.491l-.03,6.122c0,.736-4.323,2.9-5.943,3.706-.435.213-.81.408-1.11.557-.017-.331-.044-.736-.074-1.215-.122-1.606-.483-6.483.118-6.844l5.073-3.044c1.563-.931,1.637-1.2,1.772-2.794l.044-.4-.088-.135-.243.165h-.192v-.014c-.108.014-.213.014-.3.03A10.8,10.8,0,0,0,20.1,14c-.327.223-.658.179-.989.388-.017-.165-.03-.344-.044-.54-.091-1.006-.3-3.631.179-3.932L22.7,7.85a2.426,2.426,0,0,0,1.11-2.433.339.339,0,0,0-.256-.331,2.613,2.613,0,0,0-.6-.057,6.632,6.632,0,0,0-3.54,1.559c.013-.4.03-.8.044-1.185.03-.631.061-1.262.061-1.89,0-1.893-.1-2.464-1.2-3.274A1.042,1.042,0,0,0,17.669,0" transform="translate(7.44)" fill="#ffbd00"/>
      </g>
    </g>
  </g>
</svg>
